<svg width="80" height="38" viewBox="0 0 80 38" fill="none" xmlns="http://www.w3.org/2000/svg">
<g clip-path="url(#clip0_1712_1493)">
<path d="M20.8766 10.5314V21.0007H18.4186V16.4961H10.8132V21.0007H8.37772V10.5314H10.8132V14.5905H18.4186V10.5314H20.8766Z" fill="white"/>
<path d="M28.6157 10.5313H36.3266C38.2941 10.5313 38.9239 11.0387 38.9239 13.0063V18.5264C38.9239 20.4939 38.2944 21.0013 36.3266 21.0013H28.6157C26.6482 21.0013 26.0184 20.4939 26.0184 18.5264V13.0063C26.0183 11.0387 26.6479 10.5313 28.6157 10.5313ZM36.4885 19.0336V12.3983H28.4538V19.0336L36.4885 19.0336Z" fill="white"/>
<path d="M44.2564 22.1282L46.4608 20.8597V22.1282H44.2564Z" fill="white"/>
<path d="M51.9125 18.0521L55.9547 15.7293V16.0225C55.9547 17.4827 55.2049 18.0521 53.5813 18.0521H51.9125Z" fill="white"/>
<path d="M70.5284 20.1606V22.1282H59.7151V13.5645L63.0302 11.6589H70.4325V13.4461H62.1507V15.7801H66.9822V17.5616H62.1507V20.1606H70.5284Z" fill="white"/>
<path d="M59.7151 10.5313V12.4369L63.0302 10.5313H59.7151Z" fill="white"/>
<path d="M12.42 25.9901V26.2325L10.0465 26.661V25.4827H2.43551V32.1183H10.0465V29.7843H6.06623V28.0027H12.42V31.6109C12.42 33.5785 11.7886 34.0859 9.82098 34.0859H2.59901C0.631429 34.0859 0 33.5785 0 31.6109V26.0915C0 24.124 0.631429 23.6166 2.59901 23.6166H9.82098C11.7322 23.6166 12.42 24.107 12.42 25.9901Z" fill="white"/>
<path d="M23.47 23.6166H21.1134L15.1881 34.0859H17.6237L18.8414 31.797H25.477L27.4954 30.6356L23.47 23.6166ZM19.8731 29.9083L22.2128 25.6462L24.4623 29.9083H19.8731Z" fill="white"/>
<path d="M36.6229 25.5672L33.3925 27.5686V23.6166H35.2168L36.6229 25.5672Z" fill="white"/>
<path d="M53.0175 10.5313H44.0647V21.0007H44.2564L46.4608 19.7322V16.9246H51.3487L55.391 14.6018V12.5609C55.391 11.1008 54.6412 10.5313 53.0175 10.5313ZM53.0344 14.2861C53.0344 14.9739 52.6905 15.1148 51.9407 15.1148H46.4608V12.3354H51.9407C52.6905 12.3354 53.0344 12.482 53.0344 13.1698V14.2861Z" fill="white"/>
<path d="M28.0591 31.7631L30.038 35.2134H27.298L26.0408 32.9245L28.0591 31.7631Z" fill="white"/>
<path d="M45.119 24.7441H47.0697V35.2134H44.8202V28.7413C44.8267 28.3681 44.853 27.9954 44.8991 27.625C44.7276 28.008 44.5239 28.3758 44.2902 28.7244L40.3551 33.9562H39.8702L35.9294 28.7018C35.675 28.3715 35.4647 28.0096 35.3037 27.625C35.3431 28.0535 35.36 28.3974 35.36 28.7413V35.2134H33.3925V28.6962L36.8766 26.6948L40.2931 31.0753L45.119 24.7441Z" fill="white"/>
<path d="M78.9061 31.3008V32.7385C78.9061 34.706 78.2577 35.2134 76.2845 35.2134H69.818C67.8448 35.2134 67.1964 34.706 67.1964 32.7385V32.4566L69.3501 32.0112V33.2459H76.7524V30.8554H70.2183C68.2507 30.8554 67.6249 30.3424 67.6249 28.3748V27.2191C67.6249 25.2515 68.2507 24.7441 70.2183 24.7441H76.1661C78.0322 24.7441 78.7651 25.2346 78.7651 27.0387V27.2642L76.6115 27.7659V26.5707H69.756V28.8202H76.2845C78.2577 28.8202 78.9061 29.3276 78.9061 31.3008Z" fill="white"/>
<path d="M54.6524 33.2459H63.0301V35.2134H52.2169V24.7441H62.9287V26.5313H54.6524V28.8653H59.4784V30.6525H54.6524V33.2459Z" fill="white"/>
<path d="M24.3978 34.3033L24.6464 35.7796C21.8961 36.0545 19.5009 37.1033 16.7999 37.77C19.1272 36.209 21.6935 35.038 24.3978 34.3033Z" fill="white"/>
<path d="M23.2952 32.7809L20.2081 35.1434C20.8287 34.5386 22.3086 31.847 23.2952 32.7809Z" fill="white"/>
<path d="M79.8532 3.28682C79.7634 3.36266 79.6672 3.43057 79.5657 3.48978C79.4642 3.56307 79.3627 3.63636 79.2613 3.70402L78.6524 4.14376C78.2577 4.42565 77.8631 4.71317 77.4685 4.99506C77.4572 5.00634 77.4459 5.01198 77.4346 5.02325C77.2655 5.14164 77.0907 5.24876 76.916 5.36152C76.72 5.48369 76.5045 5.57141 76.2789 5.62085C75.6305 5.75616 74.954 5.47427 74.2718 5.45736C73.45 5.53508 72.6628 5.82663 71.9886 6.30302C70.7877 6.97955 69.5925 7.68991 68.4086 8.37208C68.6436 8.49321 68.9081 8.54532 69.1715 8.52237C69.4349 8.49942 69.6864 8.40236 69.8969 8.24241C69.686 8.66172 69.3678 9.0177 68.9747 9.27417C68.5815 9.53064 68.1275 9.67846 67.6588 9.70259C67.3261 9.71387 66.9822 9.65749 66.6665 9.69695C66.1386 9.80572 65.6416 10.0311 65.212 10.3566L65.1894 10.4299L65.1556 10.3904L65.0767 10.2833C65.0992 10.3171 65.1274 10.3509 65.15 10.3904L63.6672 11.1684C63.6672 11.1684 63.1034 10.8414 63.2444 10.7005C63.7856 10.3904 64.3268 10.0803 64.8737 9.76461C65.358 9.53379 65.784 9.19652 66.1196 8.778C66.2878 8.49431 66.4384 8.2006 66.5707 7.89851C66.8064 7.49267 67.1456 7.15669 67.5537 6.92491C67.9618 6.69313 68.4241 6.57385 68.8934 6.57927C68.6553 6.6934 68.4544 6.87253 68.3137 7.09598C68.1731 7.31943 68.0984 7.5781 68.0985 7.84213C69.2542 7.09795 70.4269 6.35376 71.577 5.60394C72.3086 5.21975 72.9282 4.65259 73.3754 3.95771C73.6799 3.35447 73.7363 2.62157 74.1535 2.09162C74.3044 1.91879 74.4813 1.77045 74.6778 1.65187C74.853 1.54325 75.0337 1.44352 75.219 1.35307C76.0929 0.902049 76.9724 0.451028 77.8575 7.62939e-06C77.8743 0.206786 77.8369 0.414383 77.7489 0.602258C77.6609 0.790132 77.5254 0.951771 77.3557 1.07118C77.0107 1.30453 76.7389 1.63102 76.5721 2.01269C76.5508 2.10287 76.5484 2.19646 76.5649 2.28762C76.5814 2.37879 76.6164 2.46559 76.6679 2.54264C76.7412 2.65539 76.8314 2.75123 76.8934 2.85835C76.9682 3.04613 77.0688 3.22259 77.1922 3.38266C77.2913 3.45794 77.4067 3.50888 77.5291 3.5314C77.6515 3.55393 77.7775 3.54739 77.8969 3.51233C78.2296 3.43904 78.5396 3.27555 78.8666 3.1797C79.028 3.11908 79.2013 3.09719 79.3727 3.11579C79.544 3.1344 79.7086 3.19298 79.8532 3.28682Z" fill="white"/>
</g>
<defs>
<clipPath id="clip0_1712_1493">
<rect width="79.8532" height="37.7699" fill="white"/>
</clipPath>
</defs>
</svg>
