<svg width="80" height="38" viewBox="0 0 80 38" fill="none" xmlns="http://www.w3.org/2000/svg">
<g clip-path="url(#clip0_2243_705)">
<path d="M20.8766 10.5314V21.0007H18.4185V16.4961H10.8132V21.0007H8.37769V10.5314H10.8132V14.5906H18.4185V10.5314H20.8766Z" fill="white"/>
<path d="M28.6157 10.5314H36.3266C38.2941 10.5314 38.9239 11.0388 38.9239 13.0063V18.5264C38.9239 20.494 38.2944 21.0014 36.3266 21.0014H28.6157C26.6482 21.0014 26.0184 20.494 26.0184 18.5264V13.0063C26.0183 11.0388 26.6479 10.5314 28.6157 10.5314ZM36.4885 19.0337V12.3983H28.4538V19.0336L36.4885 19.0337Z" fill="white"/>
<path d="M44.2564 22.1282L46.4608 20.8597V22.1282H44.2564Z" fill="white"/>
<path d="M51.9125 18.0521L55.9547 15.7293V16.0225C55.9547 17.4827 55.2049 18.0521 53.5813 18.0521H51.9125Z" fill="white"/>
<path d="M70.5283 20.1606V22.1282H59.7151V13.5645L63.0301 11.6589H70.4325V13.4461H62.1506V15.7801H66.9822V17.5616H62.1506V20.1606H70.5283Z" fill="white"/>
<path d="M59.7151 10.5314V12.4369L63.0301 10.5314H59.7151Z" fill="white"/>
<path d="M12.42 25.9901V26.2325L10.0465 26.661V25.4827H2.43551V32.1183H10.0465V29.7843H6.06623V28.0028H12.42V31.6109C12.42 33.5785 11.7886 34.0859 9.82098 34.0859H2.59901C0.631429 34.0859 0 33.5785 0 31.6109V26.0916C0 24.124 0.631429 23.6166 2.59901 23.6166H9.82098C11.7322 23.6166 12.42 24.1071 12.42 25.9901Z" fill="white"/>
<path d="M23.47 23.6166H21.1134L15.1881 34.0859H17.6236L18.8414 31.797H25.477L27.4953 30.6356L23.47 23.6166ZM19.8731 29.9083L22.2128 25.6462L24.4622 29.9083H19.8731Z" fill="white"/>
<path d="M36.6229 25.5672L33.3925 27.5686V23.6166H35.2168L36.6229 25.5672Z" fill="white"/>
<path d="M53.0175 10.5314H44.0647V21.0007H44.2564L46.4607 19.7322V16.9246H51.3487L55.391 14.6018V12.561C55.391 11.1008 54.6411 10.5314 53.0175 10.5314ZM53.0344 14.2861C53.0344 14.9739 52.6905 15.1149 51.9406 15.1149H46.4607V12.3355H51.9406C52.6905 12.3355 53.0344 12.482 53.0344 13.1698V14.2861Z" fill="white"/>
<path d="M28.0592 31.7631L30.038 35.2134H27.2981L26.0408 32.9245L28.0592 31.7631Z" fill="white"/>
<path d="M45.119 24.7441H47.0697V35.2135H44.8202V28.7413C44.8267 28.3681 44.853 27.9955 44.8991 27.625C44.7276 28.0081 44.5239 28.3758 44.2902 28.7244L40.3551 33.9562H39.8702L35.9294 28.7018C35.675 28.3716 35.4647 28.0096 35.3037 27.625C35.3431 28.0535 35.36 28.3974 35.36 28.7413V35.2135H33.3925V28.6962L36.8766 26.6948L40.2931 31.0753L45.119 24.7441Z" fill="white"/>
<path d="M78.9061 31.3009V32.7385C78.9061 34.7061 78.2578 35.2135 76.2845 35.2135H69.818C67.8448 35.2135 67.1965 34.7061 67.1965 32.7385V32.4566L69.3501 32.0112V33.2459H76.7525V30.8555H70.2183C68.2507 30.8555 67.6249 30.3424 67.6249 28.3749V27.2191C67.6249 25.2515 68.2507 24.7441 70.2183 24.7441H76.1661C78.0322 24.7441 78.7652 25.2346 78.7652 27.0387V27.2642L76.6115 27.766V26.5708H69.756V28.8202H76.2845C78.2578 28.8202 78.9061 29.3276 78.9061 31.3009Z" fill="white"/>
<path d="M54.6524 33.2459H63.0301V35.2135H52.2169V24.7441H62.9287V26.5313H54.6524V28.8653H59.4784V30.6525H54.6524V33.2459Z" fill="white"/>
<path d="M24.3978 34.3033L24.6464 35.7796C21.8961 36.0545 19.5009 37.1033 16.7999 37.77C19.1272 36.209 21.6935 35.038 24.3978 34.3033Z" fill="white"/>
<path d="M23.2953 32.7809L20.2081 35.1434C20.8287 34.5386 22.3086 31.847 23.2953 32.7809Z" fill="white"/>
<path d="M79.8533 3.28681C79.7635 3.36265 79.6673 3.43056 79.5657 3.48977C79.4643 3.56306 79.3628 3.63635 79.2613 3.70401L78.6524 4.14375C78.2578 4.42564 77.8631 4.71317 77.4685 4.99505C77.4572 5.00633 77.4459 5.01197 77.4347 5.02324C77.2655 5.14164 77.0908 5.24875 76.916 5.36151C76.72 5.48368 76.5045 5.5714 76.2789 5.62085C75.6306 5.75615 74.954 5.47426 74.2719 5.45735C73.45 5.53507 72.6628 5.82663 71.9886 6.30301C70.7877 6.97955 69.5925 7.6899 68.4086 8.37207C68.6436 8.4932 68.9081 8.54531 69.1715 8.52236C69.4349 8.49942 69.6865 8.40235 69.897 8.2424C69.686 8.66171 69.3678 9.0177 68.9747 9.27417C68.5816 9.53064 68.1276 9.67845 67.6588 9.70258C67.3262 9.71386 66.9823 9.65748 66.6665 9.69695C66.1386 9.80571 65.6417 10.0311 65.212 10.3566L65.1894 10.4299L65.1556 10.3904L65.0767 10.2833C65.0992 10.3171 65.1274 10.3509 65.15 10.3904L63.6673 11.1684C63.6673 11.1684 63.1035 10.8414 63.2444 10.7005C63.7856 10.3904 64.3269 10.0803 64.8737 9.7646C65.3581 9.53378 65.784 9.19651 66.1197 8.77799C66.2878 8.49431 66.4384 8.20059 66.5707 7.8985C66.8064 7.49266 67.1457 7.15668 67.5537 6.9249C67.9618 6.69312 68.4242 6.57384 68.8935 6.57926C68.6554 6.69339 68.4544 6.87252 68.3137 7.09597C68.1731 7.31942 68.0985 7.57809 68.0985 7.84212C69.2543 7.09794 70.4269 6.35375 71.577 5.60393C72.3086 5.21974 72.9282 4.65258 73.3755 3.95771C73.6799 3.35447 73.7363 2.62156 74.1535 2.09161C74.3045 1.91879 74.4813 1.77044 74.6778 1.65186C74.8531 1.54324 75.0337 1.44352 75.219 1.35306C76.0929 0.902041 76.9724 0.451021 77.8575 0C77.8744 0.206778 77.8369 0.414376 77.7489 0.60225C77.6609 0.790124 77.5254 0.951764 77.3557 1.07117C77.0107 1.30452 76.7389 1.63101 76.5721 2.01268C76.5509 2.10287 76.5484 2.19645 76.5649 2.28762C76.5814 2.37878 76.6165 2.46558 76.6679 2.54263C76.7412 2.65538 76.8314 2.75123 76.8934 2.85834C76.9683 3.04612 77.0688 3.22258 77.1922 3.38266C77.2913 3.45793 77.4068 3.50888 77.5292 3.5314C77.6516 3.55392 77.7775 3.54739 77.897 3.51232C78.2296 3.43903 78.5397 3.27554 78.8666 3.1797C79.028 3.11907 79.2013 3.09718 79.3727 3.11578C79.5441 3.13439 79.7087 3.19297 79.8533 3.28681Z" fill="white"/>
</g>
<defs>
<clipPath id="clip0_2243_705">
<rect width="79.8532" height="37.7699" fill="white"/>
</clipPath>
</defs>
</svg>
