<svg width="77" height="77" viewBox="0 0 77 77" fill="none" xmlns="http://www.w3.org/2000/svg">
<path d="M51.3333 38.5L32.0833 51.3333V25.6667L51.3333 38.5ZM38.5 9.625C32.7891 9.625 27.2064 11.3185 22.4579 14.4913C17.7095 17.6641 14.0085 22.1738 11.823 27.45C9.63751 32.7262 9.06569 38.532 10.1798 44.1332C11.294 49.7344 14.0441 54.8795 18.0823 58.9177C22.1205 62.9559 27.2656 65.706 32.8668 66.8202C38.468 67.9343 44.2738 67.3625 49.55 65.177C54.8262 62.9915 59.3359 59.2906 62.5087 54.5421C65.6815 49.7936 67.375 44.2109 67.375 38.5C67.375 30.8419 64.3328 23.4974 58.9177 18.0823C53.5026 12.6672 46.1581 9.625 38.5 9.625Z" stroke="white" stroke-width="3" stroke-linecap="round" stroke-linejoin="round"/>
</svg>
